<svg xmlns="http://www.w3.org/2000/svg" viewBox="0 0 860 360" role="img" aria-label="MAE por passo do horizonte de previsão para cada modelo"><rect width="860" height="360" fill="#fff"/><line x1="220" y1="22" x2="220" y2="276" stroke="#e4e0d8"/><text x="220" y="298" text-anchor="middle" font-family="Arial" font-size="11" fill="#6b6558">0.7</text><line x1="307.692307692308" y1="22" x2="307.692307692308" y2="276" stroke="#e4e0d8"/><text x="307.692307692308" y="298" text-anchor="middle" font-family="Arial" font-size="11" fill="#6b6558">0.8</text><line x1="395.384615384615" y1="22" x2="395.384615384615" y2="276" stroke="#e4e0d8"/><text x="395.384615384615" y="298" text-anchor="middle" font-family="Arial" font-size="11" fill="#6b6558">0.9</text><line x1="483.076923076923" y1="22" x2="483.076923076923" y2="276" stroke="#e4e0d8"/><text x="483.076923076923" y="298" text-anchor="middle" font-family="Arial" font-size="11" fill="#6b6558">1.0</text><line x1="570.769230769231" y1="22" x2="570.769230769231" y2="276" stroke="#e4e0d8"/><text x="570.769230769231" y="298" text-anchor="middle" font-family="Arial" font-size="11" fill="#6b6558">1.1</text><line x1="658.461538461538" y1="22" x2="658.461538461538" y2="276" stroke="#e4e0d8"/><text x="658.461538461538" y="298" text-anchor="middle" font-family="Arial" font-size="11" fill="#6b6558">1.2</text><line x1="746.153846153846" y1="22" x2="746.153846153846" y2="276" stroke="#e4e0d8"/><text x="746.153846153846" y="298" text-anchor="middle" font-family="Arial" font-size="11" fill="#6b6558">1.3</text><text x="208" y="49" text-anchor="end" font-family="Arial" font-size="12" fill="#1b1f23">SARIMAX</text><circle cx="316.461538461539" cy="45" r="5" fill="#2f5d50"/><circle cx="266.476923076923" cy="45" r="5" fill="#b86b4b"/><circle cx="242.8" cy="45" r="5" fill="#4c78a8"/><circle cx="327.861538461538" cy="45" r="5" fill="#8b6ba8"/><text x="208" y="86" text-anchor="end" font-family="Arial" font-size="12" fill="#1b1f23">Random Forest</text><circle cx="421.692307692308" cy="82" r="5" fill="#2f5d50"/><circle cx="474.307692307692" cy="82" r="5" fill="#b86b4b"/><circle cx="450.630769230769" cy="82" r="5" fill="#4c78a8"/><circle cx="444.492307692308" cy="82" r="5" fill="#8b6ba8"/><text x="208" y="123" text-anchor="end" font-family="Arial" font-size="12" fill="#1b1f23">XGBoost</text><circle cx="483.076923076923" cy="119" r="5" fill="#2f5d50"/><circle cx="444.492307692308" cy="119" r="5" fill="#b86b4b"/><circle cx="431.338461538462" cy="119" r="5" fill="#4c78a8"/><circle cx="434.846153846154" cy="119" r="5" fill="#8b6ba8"/><text x="208" y="160" text-anchor="end" font-family="Arial" font-size="12" fill="#1b1f23">Média histórica</text><circle cx="559.369230769231" cy="156" r="5" fill="#2f5d50"/><circle cx="533.061538461538" cy="156" r="5" fill="#b86b4b"/><circle cx="500.615384615385" cy="156" r="5" fill="#4c78a8"/><circle cx="501.492307692308" cy="156" r="5" fill="#8b6ba8"/><text x="208" y="197" text-anchor="end" font-family="Arial" font-size="12" fill="#1b1f23">Holt-Winters</text><circle cx="645.307692307692" cy="193" r="5" fill="#2f5d50"/><circle cx="580.415384615385" cy="193" r="5" fill="#b86b4b"/><circle cx="597.076923076923" cy="193" r="5" fill="#4c78a8"/><circle cx="583.046153846154" cy="193" r="5" fill="#8b6ba8"/><text x="208" y="234" text-anchor="end" font-family="Arial" font-size="12" fill="#1b1f23">Sazonal ingênuo (12)</text><circle cx="717.215384615384" cy="230" r="5" fill="#2f5d50"/><circle cx="717.215384615384" cy="230" r="5" fill="#b86b4b"/><circle cx="717.215384615384" cy="230" r="5" fill="#4c78a8"/><circle cx="717.215384615384" cy="230" r="5" fill="#8b6ba8"/><circle cx="285" cy="327" r="5" fill="#2f5d50"/><text x="294" y="331" font-family="Arial" font-size="11" fill="#1b1f23">Horizonte 1</text><circle cx="410" cy="327" r="5" fill="#b86b4b"/><text x="419" y="331" font-family="Arial" font-size="11" fill="#1b1f23">Horizonte 2</text><circle cx="535" cy="327" r="5" fill="#4c78a8"/><text x="544" y="331" font-family="Arial" font-size="11" fill="#1b1f23">Horizonte 3</text><circle cx="660" cy="327" r="5" fill="#8b6ba8"/><text x="669" y="331" font-family="Arial" font-size="11" fill="#1b1f23">Horizonte 4</text></svg>