<svg xmlns="http://www.w3.org/2000/svg" viewBox="0 0 820 320" role="img" aria-label="Ranking FIFA do Brasil (1 = melhor posição)"><rect width="820" height="320" fill="#fff"/><text x="410" y="24" text-anchor="middle" font-family="Arial" font-size="16" fill="#1b1f23">Ranking FIFA do Brasil (1 = melhor posição)</text><line x1="70" y1="42" x2="795" y2="42" stroke="#e4e0d8"/><text x="62" y="46" text-anchor="end" font-family="Arial" font-size="11" fill="#6b6558">1</text><line x1="70" y1="99" x2="795" y2="99" stroke="#e4e0d8"/><text x="62" y="103" text-anchor="end" font-family="Arial" font-size="11" fill="#6b6558">21</text><line x1="70" y1="156" x2="795" y2="156" stroke="#e4e0d8"/><text x="62" y="160" text-anchor="end" font-family="Arial" font-size="11" fill="#6b6558">41</text><line x1="70" y1="213" x2="795" y2="213" stroke="#e4e0d8"/><text x="62" y="217" text-anchor="end" font-family="Arial" font-size="11" fill="#6b6558">60</text><line x1="70" y1="270" x2="795" y2="270" stroke="#e4e0d8"/><text x="62" y="274" text-anchor="end" font-family="Arial" font-size="11" fill="#6b6558">80</text><polyline points="70.0,47.8 83.9,62.2 86.8,42.0 88.6,42.0 90.4,50.7 92.5,47.8 95.9,44.9 97.7,44.9 99.9,42.0 101.7,42.0 103.4,47.8 105.8,42.0 109.2,42.0 111.8,42.0 113.6,42.0 115.4,42.0 119.3,42.0 122.9,42.0 124.6,42.0 126.4,42.0 129.0,42.0 130.8,42.0 132.6,42.0 134.3,42.0 136.5,42.0 138.3,42.0 140.6,42.0 142.3,42.0 146.3,42.0 148.1,42.0 150.7,42.0 154.3,42.0 156.0,42.0 157.8,42.0 159.6,42.0 161.3,42.0 165.8,42.0 168.4,42.0 170.6,42.0 172.8,42.0 174.6,42.0 176.8,42.0 178.6,42.0 180.4,42.0 182.5,42.0 184.7,42.0 188.3,42.0 190.0,42.0 192.2,42.0 194.0,42.0 197.5,42.0 199.7,42.0 201.5,42.0 203.7,42.0 205.5,42.0 207.7,42.0 209.9,42.0 211.7,42.0 213.4,42.0 215.2,42.0 217.0,42.0 218.7,42.0 220.9,42.0 222.7,42.0 224.5,42.0 226.2,42.0 228.4,42.0 230.7,42.0 232.4,42.0 234.2,42.0 236.0,42.0 237.7,42.0 239.5,42.0 241.3,42.0 243.0,42.0 245.2,42.0 247.0,42.0 249.2,42.0 251.4,42.0 253.6,42.0 255.4,42.0 257.1,42.0 258.9,42.0 260.7,42.0 262.9,44.9 265.1,44.9 266.9,44.9 269.1,44.9 270.8,44.9 272.6,44.9 274.8,47.8 276.6,47.8 278.3,47.8 280.1,47.8 282.3,47.8 284.1,44.9 285.8,44.9 288.9,42.0 291.6,42.0 293.8,42.0 296.0,42.0 297.8,42.0 299.5,42.0 301.3,42.0 303.5,42.0 305.7,42.0 307.5,42.0 309.2,42.0 311.5,42.0 313.7,42.0 315.4,42.0 317.2,42.0 319.0,42.0 320.7,42.0 322.4,42.0 324.3,42.0 326.5,42.0 328.2,42.0 330.0,42.0 331.8,42.0 333.5,42.0 335.3,42.0 337.1,42.0 338.8,42.0 341.0,42.0 343.2,42.0 345.8,42.0 347.7,42.0 349.4,42.0 351.6,42.0 353.4,42.0 355.2,42.0 356.9,42.0 359.1,42.0 360.9,42.0 362.5,42.0 364.8,42.0 367.0,42.0 368.5,42.0 370.6,42.0 372.4,42.0 374.2,42.0 376.4,42.0 378.1,42.0 381.7,42.0 383.9,42.0 385.6,42.0 387.8,42.0 390.0,42.0 391.7,42.0 393.6,42.0 395.3,44.9 397.1,47.8 399.3,47.8 401.1,44.9 402.9,47.8 405.1,42.0 407.3,42.0 409.0,47.8 411.2,44.9 413.1,44.9 414.6,44.9 416.5,44.9 418.3,44.9 420.1,44.9 421.8,44.9 423.6,44.9 425.4,44.9 427.1,50.7 429.3,56.4 431.1,56.4 433.3,50.7 435.5,53.5 437.7,53.5 439.5,53.5 441.3,53.5 443.0,53.5 444.8,50.7 446.6,50.7 448.3,53.5 450.1,42.0 452.3,42.0 454.1,42.0 456.8,42.0 459.1,44.9 460.7,44.9 463.8,44.9 465.6,44.9 467.3,44.9 469.1,42.0 470.9,42.0 473.9,47.8 475.7,47.8 477.9,50.7 480.1,47.8 481.9,47.8 483.7,50.7 485.4,50.7 486.7,50.7 489.0,53.5 491.2,47.8 493.4,47.8 496.0,53.5 497.8,50.7 499.6,56.4 501.3,59.3 503.1,53.5 505.3,56.4 507.1,56.4 508.8,56.4 510.6,59.3 511.9,53.5 514.1,56.4 515.9,56.4 517.7,53.5 519.4,70.9 521.6,76.6 523.4,73.7 525.2,79.5 527.4,76.6 530.0,91.1 531.8,91.1 533.6,91.1 535.4,91.1 537.1,93.9 538.9,93.9 540.7,102.6 542.4,65.1 544.6,65.1 546.9,62.2 549.1,70.9 551.7,68.0 553.0,68.0 554.8,68.0 556.6,65.1 558.3,65.1 560.1,56.4 561.9,50.7 563.6,47.8 566.3,59.3 568.1,59.3 570.3,56.4 572.5,56.4 574.7,56.4 576.0,56.4 577.3,56.4 579.5,56.4 581.3,56.4 583.1,53.5 584.8,53.5 586.6,53.5 588.8,56.4 590.6,53.5 592.3,53.5 594.1,59.3 596.3,62.2 598.1,56.4 600.3,56.4 602.0,56.4 603.8,56.4 606.0,59.3 607.8,59.3 609.6,59.3 612.2,65.1 614.0,65.1 616.2,50.7 618.4,47.8 620.6,44.9 622.4,44.9 623.7,44.9 625.5,44.9 627.2,44.9 629.0,42.0 630.7,42.0 632.5,42.0 634.7,44.9 636.9,42.0 639.1,44.9 641.2,44.9 643.6,44.9 645.3,44.9 647.1,44.9 648.9,44.9 650.6,44.9 652.4,44.9 654.6,44.9 655.9,44.9 657.4,50.7 660.3,47.8 662.5,47.8 664.7,47.8 667.0,47.8 668.3,47.8 671.4,47.8 674.9,47.8 679.4,47.8 682.0,44.9 685.5,47.8 687.7,47.8 689.9,47.8 691.2,47.8 695.2,47.8 698.3,47.8 702.3,47.8 704.5,47.8 708.5,47.8 710.7,47.8 712.9,47.8 713.8,47.8 718.2,47.8 721.2,47.8 724.4,47.8 729.2,44.9 731.4,44.9 733.6,44.9 735.5,44.9 737.6,44.9 740.7,44.9 743.8,42.0 749.1,42.0 753.1,42.0 755.7,42.0 760.6,42.0 767.2,47.8 772.5,47.8 773.8,47.8 777.8,47.8 780.0,47.8 782.2,53.5 783.5,53.5 787.1,53.5 790.1,53.5 795.0,50.7" fill="none" stroke="#2f5d50" stroke-width="2.5" stroke-linejoin="round" stroke-linecap="round"/><text x="70" y="302" text-anchor="middle" font-family="Arial" font-size="11" fill="#6b6558">1992</text><text x="795" y="302" text-anchor="middle" font-family="Arial" font-size="11" fill="#6b6558">2024</text></svg>